<svg width="120" height="111" viewBox="0 0 120 111" fill="none" xmlns="http://www.w3.org/2000/svg">
<path d="M89.9038 1.09275V0.897995V1.09275L89.718 0.897995V1.09275L59.998 13.3369L30.0921 1.09275V0.897995L29.9063 1.09275V0.897995V1.09275L0 13.5306V110.898L29.9063 99.0418L59.998 110.898L89.9038 99.0418L120 110.898V13.5306L89.9038 1.09275Z" fill="url(#paint0_linear_8_8)"/>
<path d="M0 13.5306V110.898L30.0921 99.0418V0.897995L0 13.5306Z" fill="url(#paint1_linear_8_8)"/>
<path d="M59.998 13.5306V110.898L29.9064 99.0418V0.897995L59.998 13.5306Z" fill="url(#paint2_linear_8_8)"/>
<path d="M59.9979 13.5306V110.898L89.9038 99.0418V0.897995L59.9979 13.5306Z" fill="url(#paint3_linear_8_8)"/>
<path d="M120 13.5306V110.898L89.718 99.0418V0.897995L120 13.5306Z" fill="url(#paint4_linear_8_8)"/>
<mask id="mask0_8_8" style="mask-type:luminance" maskUnits="userSpaceOnUse" x="17" y="24" width="87" height="68">
<path d="M102.802 58.0358C101.681 54.7318 102.053 49.0961 101.495 48.3187C97.9428 43.2656 85.2308 42.4882 79.4374 35.8798C80.3724 32.5769 78.3166 30.0498 76.2613 27.9123C73.0816 25.58 68.7847 26.5516 65.4187 27.5233C61.6807 26.7464 58.1284 25.191 54.3909 24.2194C46.1676 23.2477 37.9428 29.2724 37.9428 29.2724C31.9612 33.1596 22.8034 41.3223 18.3166 45.9864C19.4394 46.1811 20.5597 45.2095 21.8688 45.2095L30.4662 42.8772C26.916 45.9869 19.4394 51.2342 17.1963 55.5093C19.812 54.5376 25.4196 51.4279 28.2231 51.0394C25.7937 53.1775 20.7465 57.4526 19.0653 60.1728C19.2516 60.3681 19.0653 60.5618 19.0653 60.7555C21.1206 59.5896 26.1673 56.4799 28.5972 56.2856C26.1678 58.8116 21.8688 63.8657 20.9343 67.1702C22.9896 65.809 28.2231 62.8941 30.4662 62.1156C29.9058 63.4762 28.785 64.4479 28.0368 65.6138C26.916 67.3634 24.4846 69.5004 24.4846 71.6395C26.3536 69.8894 28.5972 68.335 30.8403 67.1702C29.9058 69.3067 28.0368 71.0568 27.4759 73.776C28.9708 72.2217 31.7749 71.4437 33.6439 70.861L33.4576 71.0568C33.2693 71.25 31.2144 72.8044 29.7195 74.554C31.0261 74.554 30.0916 74.3592 31.7749 74.7477H32.7094C32.3353 74.9435 31.7749 75.3304 31.2144 75.5256C30.4662 75.9146 29.5317 76.4978 28.785 76.8863C32.3353 81.5498 36.6342 85.4364 41.6809 87.963C48.2229 91.2669 55.3249 92.4349 62.6142 91.4627C62.6142 91.0737 62.4284 90.6848 62.2426 90.1021C62.0563 89.5194 61.866 89.1299 61.866 88.5472C64.2974 83.8821 62.9908 75.7193 69.3431 72.4154C73.644 70.0852 74.0156 68.9177 78.879 69.8894C81.4927 70.4721 87.2901 72.4154 89.9038 71.8332C92.3348 70.4721 93.6419 69.6962 95.8875 68.1419C98.5052 68.7245 99.4397 68.335 100.374 66.9744C99.4397 68.335 102.053 61.9219 103.178 59.5896L102.802 58.0358Z" fill="white"/>
</mask>
<g mask="url(#mask0_8_8)">
<path d="M59.998 19.1674C90.7621 19.1674 115.7 36.7428 115.7 58.4248C115.7 80.1073 90.7616 97.6811 59.998 97.6811C29.2384 97.6811 4.29895 80.1068 4.29895 58.4248C4.29895 36.7428 29.2384 19.1674 59.998 19.1674Z" fill="white"/>
</g>
<mask id="mask1_8_8" style="mask-type:luminance" maskUnits="userSpaceOnUse" x="17" y="24" width="87" height="68">
<path d="M102.802 58.0358C101.681 54.7318 102.053 49.0961 101.495 48.3187C97.9428 43.2656 85.2308 42.4882 79.4374 35.8798C80.3724 32.5769 78.3166 30.0498 76.2613 27.9123C73.0816 25.58 68.7847 26.5516 65.4187 27.5233C61.6807 26.7464 58.1284 25.191 54.3909 24.2194C46.1676 23.2477 37.9428 29.2724 37.9428 29.2724C31.9612 33.1596 22.8034 41.3223 18.3166 45.9864C19.4394 46.1811 20.5597 45.2095 21.8688 45.2095L30.4662 42.8772C26.916 45.9869 19.4394 51.2342 17.1963 55.5093C19.812 54.5376 25.4196 51.4279 28.2231 51.0394C25.7937 53.1775 20.7465 57.4526 19.0653 60.1728C19.2516 60.3681 19.0653 60.5618 19.0653 60.7555C21.1206 59.5896 26.1673 56.4799 28.5972 56.2856C26.1678 58.8116 21.8688 63.8657 20.9343 67.1702C22.9896 65.809 28.2231 62.8941 30.4662 62.1156C29.9058 63.4762 28.785 64.4479 28.0368 65.6138C26.916 67.3634 24.4846 69.5004 24.4846 71.6395C26.3536 69.8894 28.5972 68.335 30.8403 67.1702C29.9058 69.3067 28.0368 71.0568 27.4759 73.776C28.9708 72.2217 31.7749 71.4437 33.6439 70.861L33.4576 71.0568C33.2693 71.25 31.2144 72.8044 29.7195 74.554C31.0261 74.554 30.0916 74.3592 31.7749 74.7477H32.7094C32.3353 74.9435 31.7749 75.3304 31.2144 75.5256C30.4662 75.9146 29.5317 76.4978 28.785 76.8863C32.3353 81.5498 36.6342 85.4364 41.6809 87.963C48.2229 91.2669 55.3249 92.4349 62.6142 91.4627C62.6142 91.0737 62.4284 90.6848 62.2426 90.1021C62.0563 89.5194 61.866 89.1299 61.866 88.5472C64.2974 83.8821 62.9908 75.7193 69.3431 72.4154C73.644 70.0852 74.0156 68.9177 78.879 69.8894C81.4927 70.4721 87.2901 72.4154 89.9038 71.8332C92.3348 70.4721 93.6419 69.6962 95.8875 68.1419C98.5052 68.7245 99.4397 68.335 100.374 66.9744C99.4397 68.335 102.053 61.9219 103.178 59.5896L102.802 58.0358Z" fill="white"/>
</mask>
<g mask="url(#mask1_8_8)">
<path d="M0.748291 15.2802V113.813L30.4668 101.568V2.84184L0.748291 15.2802Z" fill="#F2F2F2"/>
</g>
<mask id="mask2_8_8" style="mask-type:luminance" maskUnits="userSpaceOnUse" x="17" y="24" width="87" height="68">
<path d="M102.802 58.0358C101.681 54.7318 102.053 49.0961 101.495 48.3187C97.9428 43.2656 85.2308 42.4882 79.4374 35.8798C80.3724 32.5769 78.3166 30.0498 76.2613 27.9123C73.0816 25.58 68.7847 26.5516 65.4187 27.5233C61.6807 26.7464 58.1284 25.191 54.3909 24.2194C46.1676 23.2477 37.9428 29.2724 37.9428 29.2724C31.9612 33.1596 22.8034 41.3223 18.3166 45.9864C19.4394 46.1811 20.5597 45.2095 21.8688 45.2095L30.4662 42.8772C26.916 45.9869 19.4394 51.2342 17.1963 55.5093C19.812 54.5376 25.4196 51.4279 28.2231 51.0394C25.7937 53.1775 20.7465 57.4526 19.0653 60.1728C19.2516 60.3681 19.0653 60.5618 19.0653 60.7555C21.1206 59.5896 26.1673 56.4799 28.5972 56.2856C26.1678 58.8116 21.8688 63.8657 20.9343 67.1702C22.9896 65.809 28.2231 62.8941 30.4662 62.1156C29.9058 63.4762 28.785 64.4479 28.0368 65.6138C26.916 67.3634 24.4846 69.5004 24.4846 71.6395C26.3536 69.8894 28.5972 68.335 30.8403 67.1702C29.9058 69.3067 28.0368 71.0568 27.4759 73.776C28.9708 72.2217 31.7749 71.4437 33.6439 70.861L33.4576 71.0568C33.2693 71.25 31.2144 72.8044 29.7195 74.554C31.0261 74.554 30.0916 74.3592 31.7749 74.7477H32.7094C32.3353 74.9435 31.7749 75.3304 31.2144 75.5256C30.4662 75.9146 29.5317 76.4978 28.785 76.8863C32.3353 81.5498 36.6342 85.4364 41.6809 87.963C48.2229 91.2669 55.3249 92.4349 62.6142 91.4627C62.6142 91.0737 62.4284 90.6848 62.2426 90.1021C62.0563 89.5194 61.866 89.1299 61.866 88.5472C64.2974 83.8821 62.9908 75.7193 69.3431 72.4154C73.644 70.0852 74.0156 68.9177 78.879 69.8894C81.4927 70.4721 87.2901 72.4154 89.9038 71.8332C92.3348 70.4721 93.6419 69.6962 95.8875 68.1419C98.5052 68.7245 99.4397 68.335 100.374 66.9744C99.4397 68.335 102.053 61.9219 103.178 59.5896L102.802 58.0358Z" fill="white"/>
</mask>
<g mask="url(#mask2_8_8)">
<path d="M60.1874 15.2802V113.813L30.2805 101.568V2.84184L60.1874 15.2802Z" fill="white"/>
</g>
<mask id="mask3_8_8" style="mask-type:luminance" maskUnits="userSpaceOnUse" x="17" y="24" width="87" height="68">
<path d="M102.802 58.0358C101.681 54.7318 102.053 49.0961 101.495 48.3187C97.9428 43.2656 85.2308 42.4882 79.4374 35.8798C80.3724 32.5769 78.3166 30.0498 76.2613 27.9123C73.0816 25.58 68.7847 26.5516 65.4187 27.5233C61.6807 26.7464 58.1284 25.191 54.3909 24.2194C46.1676 23.2477 37.9428 29.2724 37.9428 29.2724C31.9612 33.1596 22.8034 41.3223 18.3166 45.9864C19.4394 46.1811 20.5597 45.2095 21.8688 45.2095L30.4662 42.8772C26.916 45.9869 19.4394 51.2342 17.1963 55.5093C19.812 54.5376 25.4196 51.4279 28.2231 51.0394C25.7937 53.1775 20.7465 57.4526 19.0653 60.1728C19.2516 60.3681 19.0653 60.5618 19.0653 60.7555C21.1206 59.5896 26.1673 56.4799 28.5972 56.2856C26.1678 58.8116 21.8688 63.8657 20.9343 67.1702C22.9896 65.809 28.2231 62.8941 30.4662 62.1156C29.9058 63.4762 28.785 64.4479 28.0368 65.6138C26.916 67.3634 24.4846 69.5004 24.4846 71.6395C26.3536 69.8894 28.5972 68.335 30.8403 67.1702C29.9058 69.3067 28.0368 71.0568 27.4759 73.776C28.9708 72.2217 31.7749 71.4437 33.6439 70.861L33.4576 71.0568C33.2693 71.25 31.2144 72.8044 29.7195 74.554C31.0261 74.554 30.0916 74.3592 31.7749 74.7477H32.7094C32.3353 74.9435 31.7749 75.3304 31.2144 75.5256C30.4662 75.9146 29.5317 76.4978 28.785 76.8863C32.3353 81.5498 36.6342 85.4364 41.6809 87.963C48.2229 91.2669 55.3249 92.4349 62.6142 91.4627C62.6142 91.0737 62.4284 90.6848 62.2426 90.1021C62.0563 89.5194 61.866 89.1299 61.866 88.5472C64.2974 83.8821 62.9908 75.7193 69.3431 72.4154C73.644 70.0852 74.0156 68.9177 78.879 69.8894C81.4927 70.4721 87.2901 72.4154 89.9038 71.8332C92.3348 70.4721 93.6419 69.6962 95.8875 68.1419C98.5052 68.7245 99.4397 68.335 100.374 66.9744C99.4397 68.335 102.053 61.9219 103.178 59.5896L102.802 58.0358Z" fill="white"/>
</mask>
<g mask="url(#mask3_8_8)">
<path d="M60.1873 15.2802V113.813L89.718 101.568V2.84184L60.1873 15.2802Z" fill="#F2F2F2"/>
</g>
<mask id="mask4_8_8" style="mask-type:luminance" maskUnits="userSpaceOnUse" x="17" y="24" width="87" height="68">
<path d="M102.802 58.0358C101.681 54.7318 102.053 49.0961 101.495 48.3187C97.9428 43.2656 85.2308 42.4882 79.4374 35.8798C80.3724 32.5769 78.3166 30.0498 76.2613 27.9123C73.0816 25.58 68.7847 26.5516 65.4187 27.5233C61.6807 26.7464 58.1284 25.191 54.3909 24.2194C46.1676 23.2477 37.9428 29.2724 37.9428 29.2724C31.9612 33.1596 22.8034 41.3223 18.3166 45.9864C19.4394 46.1811 20.5597 45.2095 21.8688 45.2095L30.4662 42.8772C26.916 45.9869 19.4394 51.2342 17.1963 55.5093C19.812 54.5376 25.4196 51.4279 28.2231 51.0394C25.7937 53.1775 20.7465 57.4526 19.0653 60.1728C19.2516 60.3681 19.0653 60.5618 19.0653 60.7555C21.1206 59.5896 26.1673 56.4799 28.5972 56.2856C26.1678 58.8116 21.8688 63.8657 20.9343 67.1702C22.9896 65.809 28.2231 62.8941 30.4662 62.1156C29.9058 63.4762 28.785 64.4479 28.0368 65.6138C26.916 67.3634 24.4846 69.5004 24.4846 71.6395C26.3536 69.8894 28.5972 68.335 30.8403 67.1702C29.9058 69.3067 28.0368 71.0568 27.4759 73.776C28.9708 72.2217 31.7749 71.4437 33.6439 70.861L33.4576 71.0568C33.2693 71.25 31.2144 72.8044 29.7195 74.554C31.0261 74.554 30.0916 74.3592 31.7749 74.7477H32.7094C32.3353 74.9435 31.7749 75.3304 31.2144 75.5256C30.4662 75.9146 29.5317 76.4978 28.785 76.8863C32.3353 81.5498 36.6342 85.4364 41.6809 87.963C48.2229 91.2669 55.3249 92.4349 62.6142 91.4627C62.6142 91.0737 62.4284 90.6848 62.2426 90.1021C62.0563 89.5194 61.866 89.1299 61.866 88.5472C64.2974 83.8821 62.9908 75.7193 69.3431 72.4154C73.644 70.0852 74.0156 68.9177 78.879 69.8894C81.4927 70.4721 87.2901 72.4154 89.9038 71.8332C92.3348 70.4721 93.6419 69.6962 95.8875 68.1419C98.5052 68.7245 99.4397 68.335 100.374 66.9744C99.4397 68.335 102.053 61.9219 103.178 59.5896L102.802 58.0358Z" fill="white"/>
</mask>
<g mask="url(#mask4_8_8)">
<path d="M119.624 15.2802V113.813L89.718 101.568V2.84184L119.624 15.2802Z" fill="white"/>
</g>
<defs>
<linearGradient id="paint0_linear_8_8" x1="59.9991" y1="111.008" x2="59.9991" y2="1.00883" gradientUnits="userSpaceOnUse">
<stop stop-color="#2075BC"/>
<stop offset="1" stop-color="#29AAE1"/>
</linearGradient>
<linearGradient id="paint1_linear_8_8" x1="15.0457" y1="111.008" x2="15.0457" y2="1.00883" gradientUnits="userSpaceOnUse">
<stop stop-color="#0A6AA8"/>
<stop offset="1" stop-color="#1699C8"/>
</linearGradient>
<linearGradient id="paint2_linear_8_8" x1="44.9514" y1="111.008" x2="44.9514" y2="1.00883" gradientUnits="userSpaceOnUse">
<stop stop-color="#2075BC"/>
<stop offset="1" stop-color="#29AAE1"/>
</linearGradient>
<linearGradient id="paint3_linear_8_8" x1="74.9501" y1="111.008" x2="74.9501" y2="1.00883" gradientUnits="userSpaceOnUse">
<stop stop-color="#0A6AA8"/>
<stop offset="1" stop-color="#1699C8"/>
</linearGradient>
<linearGradient id="paint4_linear_8_8" x1="104.858" y1="111.008" x2="104.858" y2="1.00883" gradientUnits="userSpaceOnUse">
<stop stop-color="#2075BC"/>
<stop offset="1" stop-color="#29AAE1"/>
</linearGradient>
</defs>
</svg>
